<svg width="172" height="105" viewBox="0 0 172 105" fill="none" xmlns="http://www.w3.org/2000/svg">
<path fill-rule="evenodd" clip-rule="evenodd" d="M165.454 53.0892C169.776 63.5232 172 74.7063 172 86H163.234C163.163 76.1155 161.182 66.3361 157.398 57.2006C153.544 47.8964 147.895 39.4424 140.774 32.3212C133.653 25.2001 125.199 19.5513 115.895 15.6974C106.591 11.8435 96.6186 9.85986 86.5478 9.85986C76.477 9.85986 66.5048 11.8435 57.2006 15.6974C47.8964 19.5513 39.4424 25.2001 32.3212 32.3212C25.2001 39.4424 19.5513 47.8964 15.6974 57.2006C11.9133 66.3361 9.93242 76.1155 9.86182 86H0C0 74.7063 2.22445 63.5232 6.54636 53.0892C10.8683 42.6552 17.203 33.1747 25.1888 25.1888C33.1747 17.203 42.6552 10.8683 53.0892 6.54636C63.5232 2.22446 74.7063 0 86 0C97.2937 0 108.477 2.22445 118.911 6.54636C129.345 10.8683 138.825 17.203 146.811 25.1888C154.797 33.1747 161.132 42.6552 165.454 53.0892Z" fill="#D4CED0"/>
<path fill-rule="evenodd" clip-rule="evenodd" d="M9.86182 86.0001C9.9324 76.1156 11.9133 66.3361 15.6974 57.2006C19.5513 47.8964 25.2001 39.4424 32.3212 32.3212C38.5903 26.0522 45.8924 20.9242 53.8981 17.1573L49.6549 8.05762C34.2393 15.246 21.3015 26.8442 12.4776 41.3856C4.3036 54.8559 -0.000148991 70.2914 3.86849e-09 86.0001H9.86182Z" fill="#957BFF"/>
<path fill-rule="evenodd" clip-rule="evenodd" d="M82.911 99.1078C86.7279 102.292 92.4032 101.779 95.5872 97.9619C98.7712 94.145 98.2582 88.4697 94.4413 85.2857C90.6245 82.1017 84.9491 82.6147 81.7651 86.4316C78.5811 90.2484 79.0941 95.9238 82.911 99.1078ZM84.8327 96.8043C87.3773 98.927 91.1608 98.585 93.2835 96.0404C95.4062 93.4958 95.0642 89.7122 92.5196 87.5895C89.975 85.4669 86.1915 85.8089 84.0688 88.3535C81.9461 90.8981 82.2881 94.6816 84.8327 96.8043Z" fill="#BCACFF"/>
<path d="M54.3501 17.0635C53.8328 16.8702 53.2566 17.1328 53.0633 17.6502L49.9125 26.0806C49.7192 26.5979 49.9818 27.1741 50.4991 27.3674C51.0165 27.5608 51.5926 27.2981 51.7859 26.7808L54.5866 19.287L62.0804 22.0877C62.5977 22.2811 63.1738 22.0184 63.3672 21.5011C63.5605 20.9838 63.2979 20.4077 62.7805 20.2143L54.3501 17.0635ZM53.0901 18.4151L84.0901 86.4151L85.9099 85.5854L54.9099 17.5854L53.0901 18.4151Z" fill="#BCACFF"/>
</svg>
