<svg width="172" height="86" viewBox="0 0 172 86" fill="none" xmlns="http://www.w3.org/2000/svg">
<path fill-rule="evenodd" clip-rule="evenodd" d="M165.454 53.0892C169.776 63.5232 172 74.7063 172 86H163.234C163.163 76.1155 161.182 66.3361 157.398 57.2006C153.544 47.8964 147.895 39.4424 140.774 32.3212C133.653 25.2001 125.199 19.5513 115.895 15.6974C106.591 11.8435 96.6186 9.85986 86.5478 9.85986C76.477 9.85986 66.5048 11.8435 57.2006 15.6974C47.8964 19.5513 39.4424 25.2001 32.3212 32.3212C25.2001 39.4424 19.5513 47.8964 15.6974 57.2006C11.9133 66.3361 9.93242 76.1155 9.86182 86H0C0 74.7063 2.22445 63.5232 6.54636 53.0892C10.8683 42.6552 17.203 33.1747 25.1888 25.1888C33.1747 17.203 42.6552 10.8683 53.0892 6.54636C63.5232 2.22446 74.7063 0 86 0C97.2937 0 108.477 2.22445 118.911 6.54636C129.345 10.8683 138.825 17.203 146.811 25.1888C154.797 33.1747 161.132 42.6552 165.454 53.0892Z" fill="#957BFF"/>
<path fill-rule="evenodd" clip-rule="evenodd" d="M0 86C1.61544e-05 84.1277 0.0611828 82.2518 0.184174 80.3753C1.29663 63.4025 7.41712 47.1408 17.7717 33.6465C28.1262 20.1522 42.2498 10.0314 58.3563 4.56401C74.4628 -0.903417 91.8289 -1.47192 108.259 2.93039L105.747 12.3022C99.4901 10.6841 93.0394 9.85986 86.5478 9.85986C76.477 9.85986 66.5048 11.8435 57.2006 15.6974C47.8964 19.5513 39.4424 25.2001 32.3212 32.3212C25.2001 39.4424 19.5513 47.8964 15.6974 57.2006C11.9133 66.3361 9.93242 76.1155 9.86182 86H0Z" fill="#957BFF"/>
</svg>
