<svg width="172" height="105" viewBox="0 0 172 105" fill="none" xmlns="http://www.w3.org/2000/svg">
<path fill-rule="evenodd" clip-rule="evenodd" d="M165.454 53.0892C169.776 63.5232 172 74.7063 172 86H163.234C163.163 76.1155 161.182 66.3361 157.398 57.2006C153.544 47.8964 147.895 39.4424 140.774 32.3212C133.653 25.2001 125.199 19.5513 115.895 15.6974C106.591 11.8435 96.6186 9.85986 86.5478 9.85986C76.477 9.85986 66.5048 11.8435 57.2006 15.6974C47.8964 19.5513 39.4424 25.2001 32.3212 32.3212C25.2001 39.4424 19.5513 47.8964 15.6974 57.2006C11.9133 66.3361 9.93242 76.1155 9.86182 86H0C0 74.7063 2.22445 63.5232 6.54636 53.0892C10.8683 42.6552 17.203 33.1747 25.1888 25.1888C33.1747 17.203 42.6552 10.8683 53.0892 6.54636C63.5232 2.22446 74.7063 0 86 0C97.2937 0 108.477 2.22445 118.911 6.54636C129.345 10.8683 138.825 17.203 146.811 25.1888C154.797 33.1747 161.132 42.6552 165.454 53.0892Z" fill="#957BFF"/>
<path fill-rule="evenodd" clip-rule="evenodd" d="M0 86C1.63105e-05 84.1277 0.061183 82.2518 0.184174 80.3753C1.29663 63.4025 7.41712 47.1408 17.7717 33.6465C28.1262 20.1522 42.2498 10.0314 58.3563 4.56401C74.4628 -0.903417 91.8289 -1.47192 108.259 2.93039L105.747 12.3022C99.4901 10.6841 93.0395 9.85987 86.5478 9.85987C76.477 9.85987 66.5048 11.8435 57.2006 15.6974C47.8964 19.5513 39.4424 25.2001 32.3213 32.3212C25.2001 39.4424 19.5513 47.8964 15.6974 57.2006C11.9134 66.3361 9.93246 76.1155 9.86186 86H0Z" fill="#957BFF"/>
<path fill-rule="evenodd" clip-rule="evenodd" d="M82.911 99.1078C86.7279 102.292 92.4032 101.779 95.5872 97.9619C98.7712 94.145 98.2582 88.4697 94.4413 85.2857C90.6245 82.1017 84.9491 82.6147 81.7651 86.4316C78.5811 90.2484 79.0941 95.9238 82.911 99.1078ZM84.8326 96.804C87.3772 98.9267 91.1607 98.5847 93.2834 96.0401C95.4061 93.4955 95.0641 89.712 92.5195 87.5893C89.9749 85.4666 86.1913 85.8086 84.0687 88.3532C81.946 90.8978 82.288 94.6814 84.8326 96.804Z" fill="#BCACFF"/>
<path d="M163.767 86.6412C164.121 86.2174 164.065 85.5868 163.641 85.2326L156.735 79.4617C156.311 79.1075 155.681 79.164 155.326 79.5878C154.972 80.0116 155.029 80.6423 155.453 80.9964L161.591 86.1261L156.462 92.265C156.108 92.6888 156.164 93.3195 156.588 93.6736C157.012 94.0277 157.642 93.9713 157.996 93.5474L163.767 86.6412ZM162.911 85.004L95.9108 91.004L96.0892 92.996L163.089 86.996L162.911 85.004Z" fill="#BCACFF"/>
</svg>
