<svg width="172" height="86" viewBox="0 0 172 86" fill="none" xmlns="http://www.w3.org/2000/svg">
<path fill-rule="evenodd" clip-rule="evenodd" d="M165.454 53.0892C169.776 63.5232 172 74.7063 172 86H163.234C163.163 76.1155 161.182 66.3361 157.398 57.2006C153.544 47.8964 147.895 39.4424 140.774 32.3212C133.653 25.2001 125.199 19.5513 115.895 15.6974C106.591 11.8435 96.6186 9.85986 86.5478 9.85986C76.477 9.85986 66.5048 11.8435 57.2006 15.6974C47.8964 19.5513 39.4424 25.2001 32.3212 32.3212C25.2001 39.4424 19.5513 47.8964 15.6974 57.2006C11.9133 66.3361 9.93242 76.1155 9.86182 86H0C0 74.7063 2.22445 63.5232 6.54636 53.0892C10.8683 42.6552 17.203 33.1747 25.1888 25.1888C33.1747 17.203 42.6552 10.8683 53.0892 6.54636C63.5232 2.22446 74.7063 0 86 0C97.2937 0 108.477 2.22445 118.911 6.54636C129.345 10.8683 138.825 17.203 146.811 25.1888C154.797 33.1747 161.132 42.6552 165.454 53.0892Z" fill="#D4CED0"/>
<path fill-rule="evenodd" clip-rule="evenodd" d="M0 86C5.33882e-05 73.6215 2.67298 61.333 7.89975 49.9953C15.0208 34.5485 26.5625 21.5602 41.0652 12.673C55.5679 3.78568 72.3803 -0.601458 89.3764 0.0663238C106.373 0.734105 122.789 6.42681 136.55 16.4246L131.003 24.0594C126.309 20.72 121.242 17.9123 115.895 15.6974C106.591 11.8435 96.6186 9.85986 86.5478 9.85986C76.477 9.85986 66.5048 11.8435 57.2006 15.6974C47.8964 19.5513 39.4424 25.2001 32.3212 32.3212C25.2001 39.4424 19.5513 47.8964 15.6974 57.2006C11.9133 66.3361 9.93241 76.1155 9.86182 86H0Z" fill="#957BFF"/>
</svg>
