<svg width="40" height="40" viewBox="0 0 40 40" fill="none" xmlns="http://www.w3.org/2000/svg">
<circle cx="20" cy="20" r="19.5" transform="rotate(-180 20 20)" fill="#BCACFF" stroke="#403D41"/>
<path d="M14.9279 10.4402C14.646 10.7222 14.4877 11.1046 14.4877 11.5033C14.4877 11.902 14.646 12.2843 14.9279 12.5663L22.3707 20.0091L14.9279 27.4518C14.654 27.7354 14.5024 28.1152 14.5059 28.5095C14.5093 28.9037 14.6674 29.2808 14.9462 29.5596C15.225 29.8384 15.6021 29.9965 15.9963 29.9999C16.3906 30.0034 16.7704 29.8518 17.054 29.5779L25.5598 21.0721C25.8416 20.7902 26 20.4078 26 20.0091C26 19.6104 25.8416 19.228 25.5598 18.946L17.054 10.4402C16.772 10.1584 16.3896 10 15.9909 10C15.5922 10 15.2098 10.1584 14.9279 10.4402Z" fill="#403D41"/>
</svg>
