<svg width="7" height="6" viewBox="0 0 7 6" fill="none" xmlns="http://www.w3.org/2000/svg">
<path d="M3.76211 5.87399C3.72296 5.83418 3.6919 5.78688 3.6707 5.73481C3.64951 5.68273 3.6386 5.62689 3.6386 5.5705C3.6386 5.51412 3.64951 5.45828 3.6707 5.4062C3.6919 5.35413 3.72296 5.30683 3.76211 5.26702L5.5639 3.42865L0.419917 3.42865C0.308548 3.42865 0.201741 3.38351 0.122991 3.30316C0.0442418 3.22281 3.35559e-07 3.11383 3.40714e-07 3.0002C3.4587e-07 2.88657 0.0442418 2.7776 0.122991 2.69725C0.201741 2.6169 0.308548 2.57176 0.419917 2.57176L5.5639 2.57176L3.76211 0.732667C3.68322 0.652179 3.6389 0.543014 3.6389 0.429186C3.6389 0.315359 3.68322 0.206194 3.76211 0.125706C3.84099 0.0452176 3.94799 -1.27328e-07 4.05955 -1.23829e-07C4.17111 -1.2033e-07 4.2781 0.0452177 4.35699 0.125706L6.87649 2.69636C6.91564 2.73617 6.9467 2.78347 6.9679 2.83554C6.98909 2.88762 7 2.94346 7 2.99985C7 3.05623 6.98909 3.11207 6.9679 3.16415C6.9467 3.21623 6.91564 3.26352 6.87649 3.30333L4.35699 5.87399C4.31798 5.91393 4.27162 5.94562 4.22058 5.96724C4.16954 5.98887 4.11482 6 4.05955 6C4.00428 6 3.94956 5.98887 3.89852 5.96724C3.84748 5.94562 3.80112 5.91393 3.76211 5.87399Z" fill="#BCB8B9"/>
</svg>
