<svg width="40" height="40" viewBox="0 0 40 40" fill="none" xmlns="http://www.w3.org/2000/svg">
<circle cx="20" cy="20" r="19.5" fill="#BCACFF" stroke="#403D41"/>
<path d="M25.0721 29.5598C25.354 29.2778 25.5123 28.8954 25.5123 28.4967C25.5123 28.098 25.354 27.7157 25.0721 27.4337L17.6293 19.9909L25.0721 12.5482C25.346 12.2646 25.4976 11.8848 25.4941 11.4905C25.4907 11.0963 25.3326 10.7192 25.0538 10.4404C24.775 10.1616 24.3979 10.0035 24.0037 10.0001C23.6094 9.99663 23.2296 10.1482 22.946 10.4221L14.4402 18.9279C14.1584 19.2098 14 19.5922 14 19.9909C14 20.3896 14.1584 20.772 14.4402 21.054L22.946 29.5598C23.228 29.8416 23.6104 30 24.0091 30C24.4078 30 24.7902 29.8416 25.0721 29.5598Z" fill="#403D41"/>
</svg>
