<svg width="20" height="20" viewBox="0 0 20 20" fill="none" xmlns="http://www.w3.org/2000/svg">
<path d="M7.50125 0.00124999V1.87624C8.8968 1.87347 10.2791 2.14696 11.5685 2.68094C12.8578 3.21492 14.0287 3.99882 15.0137 4.98746C16.0017 5.97293 16.7851 7.14394 17.3191 8.43318C17.853 9.72242 18.1269 11.1045 18.1249 12.4999H19.9999C19.9999 5.59621 14.4037 0 7.5 0L7.50125 0.00124999Z" fill="#957BFF"/>
<path d="M7.50141 3.75146V5.62645C9.33765 5.62645 11.0639 6.34145 12.3626 7.64019C13.6614 8.93893 14.3764 10.6652 14.3764 12.5014H16.2513C16.2513 10.1808 15.3295 7.95519 13.6885 6.31426C12.0476 4.67333 9.82204 3.75146 7.50141 3.75146ZM9.3764 7.50144L8.1264 8.75143L3.75144 10.0014L0.00146484 18.1264L0.496461 18.6214L5.04393 14.0739C4.97268 13.8081 4.99114 13.5262 5.09643 13.272C5.20171 13.0178 5.38795 12.8054 5.62626 12.6678C5.86456 12.5302 6.14161 12.475 6.41443 12.511C6.68725 12.5469 6.9406 12.6718 7.13517 12.8664C7.32975 13.061 7.45469 13.3143 7.4906 13.5871C7.52651 13.86 7.47139 14.137 7.33379 14.3753C7.1962 14.6136 6.98381 14.7998 6.72957 14.9051C6.47534 15.0104 6.19346 15.0289 5.92767 14.9576L1.3802 19.5051L1.8752 20.0001L10.0001 16.2501L11.2501 11.8752L12.5001 10.6252L9.37514 7.50019L9.3764 7.50144Z" fill="#957BFF"/>
</svg>
