<svg width="20" height="20" viewBox="0 0 20 20" fill="none" xmlns="http://www.w3.org/2000/svg">
<path d="M14.8021 12.2664C14.8021 13.1425 15.051 13.4919 15.7021 13.4919C17.1531 13.4919 18.0771 11.6406 18.0771 8.56174C18.0771 3.85586 14.6521 1.60305 10.376 1.60305C5.97708 1.60305 1.97604 4.55674 1.97604 10.1387C1.97604 15.4704 5.47604 18.374 10.851 18.374C12.676 18.374 13.901 18.1738 15.775 17.548L16.1771 19.224C14.3271 19.8258 12.35 20 10.826 20C3.77604 20 0 16.1201 0 10.1377C0 4.10513 4.37604 0 10.401 0C16.676 0 20 3.75469 20 8.36045C20 12.2653 18.776 15.2441 14.926 15.2441C13.175 15.2441 12.026 14.5432 11.876 12.9902C11.426 14.7174 10.226 15.2441 8.6 15.2441C6.425 15.2441 4.6 13.5659 4.6 10.1877C4.6 6.78348 6.20104 4.68085 9.07604 4.68085C10.601 4.68085 11.551 5.2816 11.974 6.23279L12.7 4.90613H14.8V12.2664H14.8021ZM11.7281 8.96224C11.7281 7.58657 10.7021 7.0098 9.85208 7.0098C8.92708 7.0098 7.90313 7.7597 7.90313 9.96349C7.90313 11.7157 8.67813 12.6919 9.85208 12.6919C10.6771 12.6919 11.7281 12.1662 11.7281 10.7144V8.96224Z" fill="#957BFF"/>
</svg>
