<svg width="26" height="26" viewBox="0 0 26 26" fill="none" xmlns="http://www.w3.org/2000/svg">
<path d="M19.2427 15.9463C19.2427 17.0852 19.5664 17.5394 20.4127 17.5394C22.2991 17.5394 23.5002 15.1328 23.5002 11.1303C23.5002 5.01262 19.0477 2.08396 13.4889 2.08396C7.77021 2.08396 2.56885 5.92376 2.56885 13.1803C2.56885 20.1115 7.11885 23.8862 14.1064 23.8862C16.4789 23.8862 18.0714 23.6259 20.5075 22.8124L21.0302 24.9912C18.6252 25.7736 16.055 26 14.0739 26C4.90885 26 0 20.9562 0 13.179C0 5.33667 5.68886 0 13.5214 0C21.6789 0 26 4.8811 26 10.8686C26 15.9449 24.4089 19.8173 19.4039 19.8173C17.1275 19.8173 15.6339 18.9061 15.4389 16.8873C14.8539 19.1326 13.2939 19.8173 11.18 19.8173C8.3525 19.8173 5.98 17.6357 5.98 13.2441C5.98 8.81852 8.06135 6.08511 11.7989 6.08511C13.7814 6.08511 15.0164 6.86608 15.5661 8.10263L16.51 6.37797H19.24V15.9463H19.2427ZM15.2466 11.6509C15.2466 9.86253 13.9127 9.11274 12.8077 9.11274C11.6052 9.11274 10.2741 10.0876 10.2741 12.9525C10.2741 15.2304 11.2816 16.4995 12.8077 16.4995C13.8802 16.4995 15.2466 15.8161 15.2466 13.9288V11.6509Z" fill="#BCACFF"/>
</svg>
