<svg width="26" height="27" viewBox="0 0 26 27" fill="none" xmlns="http://www.w3.org/2000/svg">
<path d="M24.4833 26.4998C21.4741 26.4998 18.5009 25.8437 15.5639 24.5317C12.6269 23.2197 9.95463 21.3599 7.54722 18.9525C5.13981 16.5451 3.28009 13.8729 1.96806 10.9359C0.656019 7.99883 0 5.02568 0 2.01642C0 1.58309 0.144444 1.22198 0.433333 0.933089C0.722222 0.6442 1.08333 0.499756 1.51667 0.499756H7.36667C7.7037 0.499756 8.00463 0.614108 8.26944 0.842811C8.53426 1.07152 8.69074 1.34235 8.73889 1.65531L9.67778 6.71087C9.72593 7.09605 9.71389 7.42105 9.64167 7.68587C9.56944 7.95068 9.43704 8.17939 9.24444 8.37198L5.74167 11.9109C6.22315 12.8016 6.79491 13.6623 7.45694 14.4928C8.11898 15.3234 8.84722 16.1238 9.64167 16.8942C10.388 17.6405 11.1704 18.3326 11.9889 18.9706C12.8074 19.6086 13.6741 20.1923 14.5889 20.722L17.9833 17.3275C18.2 17.1109 18.4829 16.9484 18.8319 16.84C19.181 16.7317 19.5241 16.7016 19.8611 16.7498L24.8444 17.7609C25.1815 17.8572 25.4583 18.0317 25.675 18.2845C25.8917 18.5373 26 18.8201 26 19.1331V24.9831C26 25.4164 25.8556 25.7775 25.5667 26.0664C25.2778 26.3553 24.9167 26.4998 24.4833 26.4998Z" fill="#BCACFF"/>
</svg>
